<?xml version="1.0" encoding="UTF-8"?>
<svg width="36px" height="27px" viewBox="0 0 36 27" version="1.1" xmlns="http://www.w3.org/2000/svg" xmlns:xlink="http://www.w3.org/1999/xlink">
    <!-- Generator: Sketch 58 (84663) - https://sketch.com -->
    <title>编组 2</title>
    <desc>Created with Sketch.</desc>
    <g id="页面-1" stroke="none" stroke-width="1" fill="none" fill-rule="evenodd">
        <g id="APP-2019-安卓版-UI组件规范（Rolla5.0）" transform="translate(-1956.000000, -43665.000000)">
            <g id="编组-4备份-32" transform="translate(1880.000000, 43464.000000)">
                <g id="编组备份-9">
                    <g id="编组-13" transform="translate(76.000000, 180.000000)">
                        <g id="编组-2" transform="translate(0.000000, 21.000000)">
                            <polygon id="Fill-1593" fill="#CFF9E8" points="25 12 36 12 36 1 25 1"></polygon>
                            <path d="M6,21 C4.89530201,21 4,21.8956026 4,23.0006714 C4,24.1057402 4.89530201,25 6,25 C7.10469799,25 8,24.1057402 8,23.0006714 C8,21.8956026 7.10469799,21 6,21 M6,19 C8.20879842,19 10,20.7912016 10,23 C10,25.2087984 8.20879842,27 6,27 C3.79120158,27 2,25.2087984 2,23 C2,20.7912016 3.79120158,19 6,19" id="Fill-1594" fill="#7CD8C6"></path>
                            <path d="M18,21 C16.895302,21 16,21.8956026 16,23.0006714 C16,24.1057402 16.895302,25 18,25 C19.104698,25 20,24.1057402 20,23.0006714 C20,21.8956026 19.104698,21 18,21 M17.9993433,19 C20.2085044,19 22,20.7912016 22,23 C22,25.2087984 20.2085044,27 17.9993433,27 C15.7901822,27 14,25.2087984 14,23 C14,20.7912016 15.7901822,19 17.9993433,19" id="Fill-1595" fill="#7CD8C6"></path>
                            <path d="M9,12 L18,12 L18,2 L9,2 L9,12 Z M3,16 L19,16 L19,1 L3,1 L3,16 Z" id="Fill-1596" fill="#30B98E"></path>
                            <path d="M21,15 L21,0 L25,0 L25,12 L34,12 C34,13.4912331 33.5106566,14 32,14 L25,14 L25,21 C25,22.3156374 24.3315859,23 23,23 L0,23 L0,17 C0,15.7854632 0.769393842,15 2,15 L21,15 Z" id="Fill-1597" fill="#7CD8C6"></path>
                        </g>
                    </g>
                </g>
            </g>
        </g>
    </g>
</svg>