<?xml version="1.0" encoding="UTF-8"?>
<svg width="140px" height="49px" viewBox="0 0 140 49" version="1.1" xmlns="http://www.w3.org/2000/svg" xmlns:xlink="http://www.w3.org/1999/xlink">
    <!-- Generator: Sketch 58 (84663) - https://sketch.com -->
    <title>编组 4</title>
    <desc>Created with Sketch.</desc>
    <g id="页面-1" stroke="none" stroke-width="1" fill="none" fill-rule="evenodd">
        <g id="APP-2019-安卓版-UI组件规范（Rolla5.0）" transform="translate(-2000.000000, -43644.000000)">
            <g id="编组-4备份-32" transform="translate(1880.000000, 43464.000000)">
                <g id="编组备份-9">
                    <g id="编组-13" transform="translate(76.000000, 180.000000)">
                        <g id="编组-4" transform="translate(44.000000, 0.000000)">
                            <polygon id="Fill-1580" fill="#034549" points="18 26 121 26 121 9 18 9"></polygon>
                            <polygon id="Fill-1581" fill="#034549" points="23 49 125 49 125 25 23 25"></polygon>
                            <polygon id="Fill-1582" fill="#02B980" points="107 19 107 49 128 49 128 5 12 5 12 49 36 49 36 19 20 19 20 14 120 14 120 19"></polygon>
                            <polygon id="Fill-1583" fill="#CFF9E8" points="12 6 12 11 128 11 128 6"></polygon>
                            <polygon id="Fill-1587" fill="#CFF9E8" points="85 49 102 49 102 42 85 42"></polygon>
                            <polygon id="Fill-1588" fill="#5FB99D" points="98 42 115 42 115 29 98 29"></polygon>
                            <polygon id="Fill-1589" fill="#CFF9E8" points="98 42 107 42 107 29 98 29"></polygon>
                            <polygon id="Fill-1584" fill="#F0CE94" points="105 42 105.000664 34 100 34 100 42"></polygon>
                            <polygon id="Fill-1586" fill="#5FB99D" points="85 49 121 49 121 42 85 42"></polygon>
                            <polygon id="Fill-1590" fill="#CFF9E8" points="60 49 78 49 78 44 60 44"></polygon>
                            <polygon id="Fill-1591" fill="#5FB99D" points="60 49 72 49 72 44 60 44"></polygon>
                            <polygon id="Fill-1592" fill="#02B980" points="-1.17180571e-13 5 140 5 140 0 -1.17180571e-13 0"></polygon>
                        </g>
                    </g>
                </g>
            </g>
        </g>
    </g>
</svg>